# xmcd
#
# Track frame offsets:
# 150
# 15454
# 34031
# 51396
# 66757
# 85764
# 97452
# 114872
# 126540
# 141799
# 169157
# 187532
#
# Disc length: 2671 seconds
#
#
# Revision: 0
# Processed by: cddbd v1.5.2PL0 Copyright (c) Steve Scherf et al.
# Submitted via: FreeRIP 2.96 
#
DISCID=9f0a6d0c
DTITLE=Carolanne Lovegrove - HOLD ON
DYEAR=2007
DGENRE=Gospel
TTITLE0=I Worship You
TTITLE1=ALL HEAVEN DECLARES
TTITLE2=LORD I GIVE YOU MY HEART
TTITLE3=WHERE COULD I GO BUT TO THE LORD
TTITLE4=HOLD ON TO THE CROSS
TTITLE5=WHAT A DAY THAT WILL BE
TTITLE6=YOU CAN GET THERE FROM HERE
TTITLE7=GOD ON THE MOUNTAIN
TTITLE8=YOU CAN COUNT ON ME
TTITLE9=THE ANCHOR HOLDS
TTITLE10=IF ISN'T LOVE
TTITLE11=MY FRIEND
EXTD=
EXTT0=
EXTT1=
EXTT2=
EXTT3=
EXTT4=
EXTT5=
EXTT6=
EXTT7=
EXTT8=
EXTT9=
EXTT10=
EXTT11=
PLAYORDER=
